<svg xmlns="http://www.w3.org/2000/svg" viewBox="0 0 37 13"><title>keybind_space</title><rect x="36" y="12" width="1" height="1" style="fill:#fff"/><path d="M992,753h-1v-1h1v1Zm-4,0h-1v-1h1v1Zm-4,0h-1v-1h1v1Zm-4,0h-1v-1h1v1Zm-4,0h-1v-1h1v1Zm-4,0h-1v-1h1v1Zm-4,0h-1v-1h1v1Zm-4,0h-1v-1h1v1Z" transform="translate(-959 -740)" style="fill:#fff"/><rect y="12" width="1" height="1" style="fill:#fff"/><path d="M960,749h-1v-1h1v1Zm0-4h-1v-1h1v1Z" transform="translate(-959 -740)" style="fill:#fff"/><rect width="1" height="1" style="fill:#fff"/><path d="M992,741h-1v-1h1v1Zm-4,0h-1v-1h1v1Zm-4,0h-1v-1h1v1Zm-4,0h-1v-1h1v1Zm-4,0h-1v-1h1v1Zm-4,0h-1v-1h1v1Zm-4,0h-1v-1h1v1Zm-4,0h-1v-1h1v1Z" transform="translate(-959 -740)" style="fill:#fff"/><rect x="36" width="1" height="1" style="fill:#fff"/><path d="M996,749h-1v-1h1v1Zm0-4h-1v-1h1v1Z" transform="translate(-959 -740)" style="fill:#fff"/></svg>