<svg xmlns="http://www.w3.org/2000/svg" viewBox="0 0 40 40"><title>octacat</title><path d="M2232.45,587a18.46,18.46,0,0,0-5.83,36,0.93,0.93,0,0,0,1.26-.89c0-.44,0-1.6,0-3.14-5.13,1.12-6.22-2.47-6.22-2.47a4.89,4.89,0,0,0-2-2.7c-1.68-1.15.13-1.12,0.13-1.12a3.88,3.88,0,0,1,2.83,1.9,3.93,3.93,0,0,0,5.37,1.53,3.94,3.94,0,0,1,1.17-2.47c-4.1-.47-8.41-2-8.41-9.12a7.13,7.13,0,0,1,1.9-5,6.64,6.64,0,0,1,.18-4.88s1.55-.5,5.08,1.89a17.49,17.49,0,0,1,9.24,0c3.52-2.39,5.07-1.89,5.07-1.89a6.63,6.63,0,0,1,.18,4.88,7.12,7.12,0,0,1,1.9,5c0,7.09-4.32,8.65-8.43,9.11a4.4,4.4,0,0,1,1.25,3.42c0,2.47,0,4.46,0,5.06a0.92,0.92,0,0,0,1.27.89A18.46,18.46,0,0,0,2232.45,587Z" transform="translate(-2212 -585)" style="fill:none;stroke:#fff;stroke-miterlimit:10;stroke-width:0.800000011920929px;fill-rule:evenodd"/><rect width="40" height="40" style="fill:none"/></svg>